<?xml version="1.0" encoding="utf-8"?>
<!-- Generator: Adobe Illustrator 17.1.0, SVG Export Plug-In . SVG Version: 6.00 Build 0)  -->
<!DOCTYPE svg PUBLIC "-//W3C//DTD SVG 1.1//EN" "http://www.w3.org/Graphics/SVG/1.1/DTD/svg11.dtd">
<svg version="1.1" id="Layer_1" xmlns="http://www.w3.org/2000/svg" xmlns:xlink="http://www.w3.org/1999/xlink" x="0px" y="0px"
	 viewBox="72.4 321.5 486.1 160" enable-background="new 72.4 321.5 486.1 160" xml:space="preserve">
<g>
	<g>
		<path fill="#FFFFFF" d="M231.8,436c-24.8,0-38.1-19.4-38.1-36.9c0-20.5,16.7-38.1,40.4-38.1c23,0,37.3,18,37.3,36.9
			C271.4,416.4,257.3,436,231.8,436z M251.4,423.3c3.8-5,4.7-11.1,4.7-17.2c0-13.6-6.6-39.7-25.9-39.7c-5.2,0-10.3,2-14.1,5.3
			c-6.1,5.4-7.2,12.2-7.2,18.9c0,15.4,7.7,40.6,26.5,40.6C241.6,431.2,247.9,428.3,251.4,423.3z"/>
		
			<linearGradient id="SVGID_1_" gradientUnits="userSpaceOnUse" x1="418" y1="611.9553" x2="418" y2="523.1765" gradientTransform="matrix(0.5564 0 0 -0.5564 0 689.2037)">
			<stop  offset="0" style="stop-color:#FFFFFF;stop-opacity:0.15"/>
			<stop  offset="1" style="stop-color:#FFFFFF;stop-opacity:0"/>
		</linearGradient>
		<path fill="url(#SVGID_1_)" d="M231.8,436c-24.8,0-38.1-19.4-38.1-36.9c0-20.5,16.7-38.1,40.4-38.1c23,0,37.3,18,37.3,36.9
			C271.4,416.4,257.3,436,231.8,436z M251.4,423.3c3.8-5,4.7-11.1,4.7-17.2c0-13.6-6.6-39.7-25.9-39.7c-5.2,0-10.3,2-14.1,5.3
			c-6.1,5.4-7.2,12.2-7.2,18.9c0,15.4,7.7,40.6,26.5,40.6C241.6,431.2,247.9,428.3,251.4,423.3z"/>
	</g>
	<g>
		<path fill="#FFFFFF" d="M467.3,433.8l4.6-4.6l-8.6-1.1c-2.2-0.3-3.8-2.1-3.8-4.3v-91.5c0-1.1,0.4-2.2,1.2-2.9l5.7-5.7h-25.8
			l-6.7,6.7h10v94.9c0,1.1-0.4,2.2-1.2,2.9l-5.7,5.7H467.3z"/>
		
			<linearGradient id="SVGID_2_" gradientUnits="userSpaceOnUse" x1="814.15" y1="690.6481" x2="814.15" y2="580.7613" gradientTransform="matrix(0.5564 0 0 -0.5564 0 689.2037)">
			<stop  offset="0" style="stop-color:#FFFFFF;stop-opacity:0.15"/>
			<stop  offset="1" style="stop-color:#FFFFFF;stop-opacity:0"/>
		</linearGradient>
		<path opacity="0.5" fill="url(#SVGID_2_)" enable-background="new    " d="M467.3,433.8l4.6-4.6l-8.6-1.1
			c-2.2-0.3-3.8-2.1-3.8-4.3v-91.5c0-1.1,0.4-2.2,1.2-2.9l5.7-5.7h-25.8l-6.7,6.7h10v94.9c0,1.1-0.4,2.2-1.2,2.9l-5.7,5.7H467.3z"/>
	</g>
	<g>
		<path fill="#FFFFFF" d="M520.1,427.9c-13.9,0-26.6-10-31.2-27.8l47.9-19.4c-2.6-9.2-9.8-19.8-28.8-19.8c-15.6,0-34.6,11.9-34.6,36
			c0,19,12.7,39,37.1,39c5.1,0,12.9-0.3,21-6.1c3.1-2.1,5.6-4.7,7.7-7.5C533.9,425.1,528.2,427.9,520.1,427.9z M505.2,366.3
			c8.5,0,15.6,7.1,15.6,13.3c0,2.2-1.6,3.1-4.6,4.2l-28.4,11.5C483.5,371.9,498.8,366.3,505.2,366.3z"/>
		
			<linearGradient id="SVGID_3_" gradientUnits="userSpaceOnUse" x1="910.1" y1="611.9553" x2="910.1" y2="523.1765" gradientTransform="matrix(0.5564 0 0 -0.5564 0 689.2037)">
			<stop  offset="0" style="stop-color:#FFFFFF;stop-opacity:0.15"/>
			<stop  offset="1" style="stop-color:#FFFFFF;stop-opacity:0"/>
		</linearGradient>
		<path fill="url(#SVGID_3_)" d="M520.1,427.9c-13.9,0-26.6-10-31.2-27.8l47.9-19.4c-2.6-9.2-9.8-19.8-28.8-19.8
			c-15.6,0-34.6,11.9-34.6,36c0,19,12.7,39,37.1,39c5.1,0,12.9-0.3,21-6.1c3.1-2.1,5.6-4.7,7.7-7.5
			C533.9,425.1,528.2,427.9,520.1,427.9z M505.2,366.3c8.5,0,15.6,7.1,15.6,13.3c0,2.2-1.6,3.1-4.6,4.2l-28.4,11.5
			C483.5,371.9,498.8,366.3,505.2,366.3z"/>
	</g>
	<g>
		<path fill="#FFFFFF" d="M317.5,436c-24.8,0-38.1-19.4-38.1-36.9c0-20.5,16.7-38.1,40.4-38.1c23,0,37.3,18,37.3,36.9
			C357.1,416.4,342.9,436,317.5,436z M337.1,423.3c3.8-5,4.7-11.1,4.7-17.2c0-13.6-6.6-39.7-25.9-39.7c-5.2,0-10.3,2-14.1,5.3
			c-6.1,5.4-7.2,12.2-7.2,18.9c0,15.4,7.7,40.6,26.5,40.6C327.3,431.2,333.5,428.3,337.1,423.3z"/>
		
			<linearGradient id="SVGID_4_" gradientUnits="userSpaceOnUse" x1="572" y1="610.8851" x2="572" y2="498.8055" gradientTransform="matrix(0.5564 0 0 -0.5564 0 689.2037)">
			<stop  offset="0" style="stop-color:#FFFFFF;stop-opacity:0.15"/>
			<stop  offset="1" style="stop-color:#FFFFFF;stop-opacity:0"/>
		</linearGradient>
		<path fill="url(#SVGID_4_)" d="M317.5,436c-24.8,0-38.1-19.4-38.1-36.9c0-20.5,16.7-38.1,40.4-38.1c23,0,37.3,18,37.3,36.9
			C357.1,416.4,342.9,436,317.5,436z M337.1,423.3c3.8-5,4.7-11.1,4.7-17.2c0-13.6-6.6-39.7-25.9-39.7c-5.2,0-10.3,2-14.1,5.3
			c-6.1,5.4-7.2,12.2-7.2,18.9c0,15.4,7.7,40.6,26.5,40.6C327.3,431.2,333.5,428.3,337.1,423.3z"/>
	</g>
	<g>
		<path fill="#FFFFFF" d="M419.5,429.4l-5.7-4.4c-1.7-1.4-4.2-3.3-4.2-6.8s2.2-6.2,4.3-7.7c6.8-5.3,13.3-10.9,13.3-22.6
			c0-10.6-6.4-16.8-10.4-20.3h8.8l6.6-6.6h-32.4c-22.7,0-34.2,14.1-34.2,29.8c0,12.1,9.2,25,25.8,25c1.3,0,4.7,0,4.7,0
			c-0.6,1.7-1.2,3.6-1.2,5.8c0,4.9,2.3,7.4,4.7,10.1c-7.1,0.4-20.4,1.8-30.2,7.8c-9.3,5.6-12.1,13.6-12.1,19.3
			c0,11.7,11.2,22.8,34.1,22.8c27.2,0,41.3-15.1,41.3-30C432.7,440.6,426.5,435.3,419.5,429.4z M399.4,411.1c-13,0-20-16.1-20-28.4
			c0-11.6,6.9-16.8,14.1-16.8c13.9,0,21.1,18.1,21.1,29C414.5,408.5,403.7,411.1,399.4,411.1z M399.2,474.6
			c-16.9,0-27.8-8.1-27.8-19.3c0-11.2,10.1-15,13.6-16.2c6.6-2.2,15.2-2.5,16.6-2.5c1.6,0,2.3,0,3.6,0.1c12,8.6,17.2,12.8,17.2,20.9
			C422.4,466.5,414.3,474.6,399.2,474.6z"/>
		
			<radialGradient id="SVGID_5_" cx="670.3274" cy="571.617" r="202.5123" gradientTransform="matrix(0.5564 0 0 -0.5564 0 689.2037)" gradientUnits="userSpaceOnUse">
			<stop  offset="0" style="stop-color:#FFFFFF;stop-opacity:8.000000e-02"/>
			<stop  offset="1" style="stop-color:#FFFFFF;stop-opacity:0"/>
		</radialGradient>
		<path fill="url(#SVGID_5_)" d="M419.5,429.4l-5.7-4.4c-1.7-1.4-4.2-3.3-4.2-6.8s2.2-6.2,4.3-7.7c6.8-5.3,13.3-10.9,13.3-22.6
			c0-10.6-6.4-16.8-10.4-20.3h8.8l6.6-6.6h-32.4c-22.7,0-34.2,14.1-34.2,29.8c0,12.1,9.2,25,25.8,25c1.3,0,4.7,0,4.7,0
			c-0.6,1.7-1.2,3.6-1.2,5.8c0,4.9,2.3,7.4,4.7,10.1c-7.1,0.4-20.4,1.8-30.2,7.8c-9.3,5.6-12.1,13.6-12.1,19.3
			c0,11.7,11.2,22.8,34.1,22.8c27.2,0,41.3-15.1,41.3-30C432.7,440.6,426.5,435.3,419.5,429.4z M399.4,411.1c-13,0-20-16.1-20-28.4
			c0-11.6,6.9-16.8,14.1-16.8c13.9,0,21.1,18.1,21.1,29C414.5,408.5,403.7,411.1,399.4,411.1z M399.2,474.6
			c-16.9,0-27.8-8.1-27.8-19.3c0-11.2,10.1-15,13.6-16.2c6.6-2.2,15.2-2.5,16.6-2.5c1.6,0,2.3,0,3.6,0.1c12,8.6,17.2,12.8,17.2,20.9
			C422.4,466.5,414.3,474.6,399.2,474.6z"/>
	</g>
	<g>
		<path fill="#FFFFFF" d="M151.3,392.7l-6.7,6.7h20v28.2c-4.6,1.5-12,3.1-23.2,3.1c-30.2,0-52.1-26.6-52.1-56.5
			c0-27.3,17.9-46.4,42.6-46.4c14.3,0,24.3,4.6,32.7,12.7v9.2l15.2-15.2c-3.5-2.4-9.7-6.5-20.6-9.7c-7.1-2.1-15.4-3.1-23.9-3.1
			c-41.3,0-63,30.3-63,57c0,38.3,28,59,60.4,59c22.4,0,40-5.1,47.5-7.1v-29.2c0-1.1,0.4-2.2,1.2-2.9l5.7-5.7h-35.8V392.7z"/>
		
			<radialGradient id="SVGID_6_" cx="172.9721" cy="643.1548" r="225.5754" gradientTransform="matrix(0.5564 0 0 -0.5564 0 689.2037)" gradientUnits="userSpaceOnUse">
			<stop  offset="0" style="stop-color:#FFFFFF;stop-opacity:8.000000e-02"/>
			<stop  offset="1" style="stop-color:#FFFFFF;stop-opacity:0"/>
		</radialGradient>
		<path fill="url(#SVGID_6_)" d="M151.3,392.7l-6.7,6.7h20v28.2c-4.6,1.5-12,3.1-23.2,3.1c-30.2,0-52.1-26.6-52.1-56.5
			c0-27.3,17.9-46.4,42.6-46.4c14.3,0,24.3,4.6,32.7,12.7v9.2l15.2-15.2c-3.5-2.4-9.7-6.5-20.6-9.7c-7.1-2.1-15.4-3.1-23.9-3.1
			c-41.3,0-63,30.3-63,57c0,38.3,28,59,60.4,59c22.4,0,40-5.1,47.5-7.1v-29.2c0-1.1,0.4-2.2,1.2-2.9l5.7-5.7h-35.8V392.7z"/>
	</g>
	<g>
		<g>
			<path fill="#FFFFFF" d="M539.7,362.1h3.3v8.9h1.1v-8.9h3.3v-1.1h-7.8V362.1z M557,360.9l-3.4,8.5l-3.4-8.5h-1.6v10h1.1v-8.3
				l3.4,8.3h0.8l3.4-8.3v8.3h1.1v-10H557z"/>
		</g>
	</g>
	<rect x="0" y="248.6" fill="none" width="612" height="294.9"/>
</g>
</svg>
