<?xml version="1.0" encoding="utf-8"?>
<!-- Generator: Adobe Illustrator 16.0.0, SVG Export Plug-In . SVG Version: 6.00 Build 0)  -->
<!DOCTYPE svg PUBLIC "-//W3C//DTD SVG 1.1//EN" "http://www.w3.org/Graphics/SVG/1.1/DTD/svg11.dtd">
<svg version="1.1" id="Layer_1" xmlns="http://www.w3.org/2000/svg" xmlns:xlink="http://www.w3.org/1999/xlink" x="0px" y="0px"
	 width="634.667px" height="87.333px" viewBox="0 0 634.667 87.333" enable-background="new 0 0 634.667 87.333"
	 xml:space="preserve">
<g>
	<g>
		<g>
			<g>
				<g>
					<path fill="#666666" d="M170.499,67.348h-2.401l-9.174-32.239c-0.763-2.646-1.335-4.819-1.715-6.515
						c-0.304,1.658-0.738,3.563-1.301,5.717c-0.562,2.151-3.634,13.165-9.217,33.037h-2.457l-11.491-41.783h3.06l7.316,26.922
						c0.286,1.087,0.552,2.09,0.801,3.014c0.246,0.926,0.471,1.793,0.671,2.602c0.2,0.81,0.382,1.59,0.543,2.343
						c0.161,0.752,0.31,1.511,0.442,2.272c0.458-2.591,1.43-6.526,2.917-11.804l7.145-25.349h3.229l8.374,29.093
						c0.971,3.354,1.667,6.06,2.085,8.117c0.249-1.371,0.567-2.829,0.957-4.373c0.389-1.542,3.33-12.488,8.817-32.837h2.944
						L170.499,67.348z"/>
					<path fill="#666666" d="M210.885,51.771c0,5.068-1.229,9.027-3.688,11.874c-2.457,2.849-5.848,4.274-10.174,4.274
						c-2.723,0-5.125-0.658-7.202-1.973c-2.076-1.313-3.668-3.201-4.773-5.658c-1.104-2.457-1.656-5.297-1.656-8.517
						c0-5.068,1.229-9.017,3.687-11.845c2.458-2.831,5.829-4.245,10.117-4.245c4.267,0,7.617,1.434,10.045,4.302
						C209.669,42.85,210.885,46.78,210.885,51.771z M186.363,51.771c0,4.27,0.938,7.598,2.814,9.989
						c1.877,2.391,4.532,3.585,7.96,3.585s6.081-1.194,7.958-3.585s2.814-5.719,2.814-9.989c0-4.287-0.948-7.611-2.842-9.976
						c-1.896-2.36-4.56-3.543-7.988-3.543c-3.429,0-6.074,1.179-7.931,3.53C187.293,44.136,186.363,47.467,186.363,51.771z"/>
					<path fill="#666666" d="M255.371,67.348V46.97c0-3.029-0.592-5.24-1.772-6.63c-1.182-1.39-2.992-2.087-5.43-2.087
						c-3.182,0-5.536,0.877-7.06,2.631c-1.524,1.753-2.287,4.507-2.287,8.257v18.207h-2.886V46.112c0-5.237-2.4-7.859-7.203-7.859
						c-3.256,0-5.63,0.95-7.115,2.844c-1.487,1.896-2.229,4.929-2.229,9.104v17.146h-2.829V36.281h2.341l0.603,4.259h0.169
						c0.857-1.544,2.076-2.739,3.658-3.588c1.583-0.847,3.325-1.271,5.231-1.271c4.896,0,8.04,1.839,9.432,5.517h0.112
						c1.01-1.773,2.368-3.135,4.074-4.087c1.705-0.953,3.643-1.43,5.815-1.43c3.391,0,5.936,0.906,7.632,2.716
						c1.695,1.808,2.544,4.686,2.544,8.629v20.321H255.371z"/>
					<path fill="#666666" d="M278.437,67.919c-4.516,0-8.035-1.39-10.562-4.173c-2.524-2.783-3.786-6.678-3.786-11.689
						c0-4.954,1.218-8.922,3.657-11.905c2.439-2.98,5.726-4.472,9.861-4.472c3.658,0,6.544,1.275,8.659,3.83
						c2.114,2.554,3.171,6.021,3.171,10.402v2.288h-22.376c0.038,4.267,1.033,7.525,2.987,9.773
						c1.952,2.248,4.748,3.372,8.388,3.372c1.772,0,3.328-0.123,4.672-0.37c1.342-0.249,3.042-0.781,5.101-1.601v2.571
						c-1.753,0.763-3.373,1.282-4.858,1.557C281.866,67.781,280.226,67.919,278.437,67.919z M277.607,38.195
						c-2.991,0-5.394,0.987-7.203,2.958c-1.809,1.973-2.869,4.817-3.171,8.532h19.206c0-3.603-0.783-6.416-2.345-8.446
						C282.533,39.211,280.368,38.195,277.607,38.195z"/>
					<path fill="#666666" d="M317.339,67.348V47.198c0-3.124-0.658-5.396-1.971-6.816c-1.315-1.419-3.354-2.129-6.118-2.129
						c-3.717,0-6.437,0.939-8.163,2.815c-1.725,1.876-2.586,4.921-2.586,9.133v17.146h-2.83V36.281h2.4l0.544,4.259h0.17
						c2.02-3.238,5.613-4.859,10.781-4.859c7.048,0,10.571,3.783,10.571,11.346v20.321H317.339z"/>
					<path fill="#666666" d="M352.327,67.348h-2.945v-39.04h-13.574v-2.743h30.094v2.743h-13.574V67.348z"/>
					<path fill="#666666" d="M381.591,67.919c-4.516,0-8.035-1.39-10.558-4.173c-2.525-2.783-3.788-6.678-3.788-11.689
						c0-4.954,1.219-8.922,3.658-11.905c2.439-2.98,5.726-4.472,9.858-4.472c3.658,0,6.547,1.275,8.662,3.83
						c2.114,2.554,3.173,6.021,3.173,10.402v2.288h-22.38c0.039,4.267,1.034,7.525,2.987,9.773c1.951,2.248,4.749,3.372,8.387,3.372
						c1.773,0,3.331-0.123,4.673-0.37c1.344-0.249,3.046-0.781,5.103-1.601v2.571c-1.753,0.763-3.372,1.282-4.858,1.557
						C385.021,67.781,383.384,67.919,381.591,67.919z M380.762,38.195c-2.991,0-5.389,0.987-7.199,2.958
						c-1.812,1.973-2.868,4.817-3.174,8.532h19.205c0-3.603-0.781-6.416-2.343-8.446C385.687,39.211,383.527,38.195,380.762,38.195z
						"/>
					<path fill="#666666" d="M411.229,67.919c-4.438,0-7.914-1.401-10.431-4.202c-2.515-2.8-3.771-6.707-3.771-11.717
						c0-5.145,1.305-9.151,3.913-12.017c2.611-2.868,6.184-4.302,10.72-4.302c2.686,0,5.257,0.468,7.716,1.401l-0.771,2.514
						c-2.688-0.895-5.022-1.344-7.004-1.344c-3.81,0-6.696,1.179-8.658,3.53C400.981,44.136,400,47.524,400,51.943
						c0,4.192,0.981,7.472,2.943,9.846c1.962,2.371,4.705,3.557,8.231,3.557c2.82,0,5.438-0.503,7.857-1.513v2.628
						C417.05,67.433,414.452,67.919,411.229,67.919z"/>
					<path fill="#666666" d="M447.128,67.348V47.198c0-3.124-0.657-5.396-1.971-6.816c-1.315-1.419-3.354-2.129-6.117-2.129
						c-3.715,0-6.434,0.939-8.158,2.815s-2.589,4.921-2.589,9.133v17.146h-2.829V22.879h2.829v14.146l-0.142,3.973h0.198
						c1.164-1.868,2.631-3.22,4.401-4.059c1.773-0.838,3.973-1.258,6.604-1.258c7.05,0,10.574,3.783,10.574,11.346v20.321H447.128z"
						/>
					<path fill="#666666" d="M495.286,67.348V46.97c0-3.029-0.59-5.24-1.771-6.63c-1.182-1.39-2.992-2.087-5.432-2.087
						c-3.181,0-5.532,0.877-7.057,2.631c-1.524,1.753-2.287,4.507-2.287,8.257v18.207h-2.886V46.112
						c0-5.237-2.402-7.859-7.202-7.859c-3.26,0-5.631,0.95-7.118,2.844c-1.484,1.896-2.229,4.929-2.229,9.104v17.146h-2.828V36.281
						h2.342l0.601,4.259h0.172c0.858-1.544,2.076-2.739,3.658-3.588c1.581-0.847,3.326-1.271,5.229-1.271
						c4.898,0,8.042,1.839,9.433,5.517h0.114c1.01-1.773,2.369-3.135,4.073-4.087c1.703-0.953,3.643-1.43,5.816-1.43
						c3.39,0,5.935,0.906,7.628,2.716c1.698,1.808,2.546,4.686,2.546,8.629v20.321H495.286z"/>
					<path fill="#666666" d="M524.669,67.348l-0.715-4.917h-0.227c-1.563,2.002-3.17,3.416-4.817,4.246
						c-1.647,0.827-3.596,1.243-5.844,1.243c-3.049,0-5.421-0.783-7.116-2.345c-1.696-1.562-2.545-3.724-2.545-6.487
						c0-3.029,1.263-5.383,3.787-7.059c2.523-1.676,6.18-2.562,10.961-2.659l5.915-0.169v-2.059c0-2.952-0.598-5.182-1.801-6.687
						c-1.199-1.504-3.133-2.259-5.801-2.259c-2.877,0-5.86,0.8-8.946,2.402l-1.056-2.457c3.409-1.602,6.781-2.402,10.118-2.402
						c3.407,0,5.957,0.886,7.645,2.659c1.685,1.771,2.529,4.534,2.529,8.286v20.664H524.669z M513.237,65.346
						c3.315,0,5.931-0.946,7.845-2.842c1.915-1.896,2.872-4.531,2.872-7.904v-3.057l-5.429,0.229
						c-4.364,0.211-7.475,0.891-9.331,2.043c-1.858,1.153-2.787,2.948-2.787,5.387c0,1.944,0.597,3.454,1.786,4.529
						C509.384,64.809,511.064,65.346,513.237,65.346z"/>
					<path fill="#666666" d="M537.247,53.714l15.861-17.433h3.428l-12.23,13.262l13.288,17.804h-3.398l-11.806-15.69l-5.086,4.63
						v11.06h-2.828V22.879h2.828V45.17l-0.199,8.543H537.247z"/>
					<path fill="#666666" d="M573.003,67.919c-4.516,0-8.035-1.39-10.562-4.173c-2.523-2.783-3.786-6.678-3.786-11.689
						c0-4.954,1.219-8.922,3.658-11.905c2.439-2.98,5.726-4.472,9.861-4.472c3.657,0,6.544,1.276,8.657,3.83
						c2.114,2.554,3.172,6.021,3.172,10.402v2.288h-22.377c0.037,4.267,1.034,7.525,2.987,9.773s4.749,3.372,8.39,3.372
						c1.771,0,3.328-0.123,4.672-0.37c1.342-0.249,3.042-0.781,5.102-1.601v2.571c-1.754,0.763-3.375,1.282-4.859,1.557
						C576.433,67.781,574.791,67.919,573.003,67.919z M572.174,38.195c-2.992,0-5.394,0.987-7.204,2.958
						c-1.809,1.973-2.868,4.817-3.17,8.532h19.205c0-3.603-0.783-6.416-2.345-8.447C577.099,39.211,574.935,38.195,572.174,38.195z"
						/>
					<path fill="#666666" d="M602.468,35.681c1.315,0,2.725,0.134,4.232,0.4l-0.544,2.717c-1.296-0.326-2.642-0.486-4.03-0.486
						c-2.65,0-4.821,1.124-6.515,3.372c-1.698,2.249-2.545,5.086-2.545,8.518v17.146h-2.829V36.281h2.399l0.286,5.603h0.2
						c1.276-2.288,2.64-3.891,4.087-4.817C598.657,36.145,600.411,35.681,602.468,35.681z"/>
					<path fill="#666666" d="M629.937,59.259c0,2.783-1.06,4.921-3.174,6.417c-2.113,1.496-5.114,2.244-9.001,2.244
						c-4.153,0-7.45-0.638-9.89-1.916v-3.058c3.126,1.562,6.421,2.343,9.89,2.343c3.066,0,5.396-0.508,6.986-1.526
						c1.593-1.021,2.387-2.378,2.387-4.074c0-1.562-0.634-2.877-1.9-3.944c-1.268-1.067-3.349-2.116-6.243-3.144
						c-3.105-1.124-5.288-2.092-6.546-2.901c-1.259-0.809-2.204-1.724-2.845-2.743c-0.638-1.021-0.956-2.264-0.956-3.731
						c0-2.323,0.977-4.162,2.928-5.514c1.955-1.353,4.683-2.031,8.189-2.031c3.352,0,6.535,0.629,9.546,1.888l-1.058,2.571
						c-3.049-1.258-5.878-1.887-8.488-1.887c-2.534,0-4.545,0.42-6.032,1.258c-1.484,0.84-2.228,2.001-2.228,3.486
						c0,1.621,0.576,2.917,1.73,3.887c1.15,0.972,3.405,2.059,6.758,3.258c2.802,1.01,4.839,1.92,6.115,2.73
						c1.277,0.812,2.234,1.729,2.872,2.758C629.616,56.659,629.937,57.869,629.937,59.259z"/>
				</g>
			</g>
		</g>
	</g>
	<g>
		<g>
			<g>
				<rect x="21.716" y="19.477" fill="#557EBF" width="14.948" height="48.53"/>
				<rect x="66.437" y="19.477" fill="#27BAA2" width="15.036" height="48.53"/>
				<polygon fill="#62C3A6" points="66.524,68.007 81.472,68.007 59.115,26.828 44.166,26.828 				"/>
			</g>
			<polygon fill="#59C2EF" points="36.664,68.007 21.716,68.007 44.074,26.828 59.021,26.828 			"/>
		</g>
		<g>
			<path fill="#557EBF" d="M12.927,75.371V12.284h16.361V2.723H7.122c-2.074,0-3.771,1.698-3.771,3.773v74.096
				c0,2.074,1.697,4.169,3.771,4.169h22.166v-9.391H12.927z"/>
			<path fill="#27BAA2" d="M90.262,75.371V12.284h-16.36V2.723h22.164c2.073,0,3.771,1.698,3.771,3.773v74.096
				c0,2.074-1.698,4.169-3.771,4.169H73.902v-9.391H90.262z"/>
		</g>
	</g>
</g>
</svg>
