<?xml version="1.0" encoding="utf-8"?>
<!-- Generator: Adobe Illustrator 17.1.0, SVG Export Plug-In . SVG Version: 6.00 Build 0)  -->
<!DOCTYPE svg PUBLIC "-//W3C//DTD SVG 1.1//EN" "http://www.w3.org/Graphics/SVG/1.1/DTD/svg11.dtd">
<svg version="1.1" id="Layer_1" xmlns="http://www.w3.org/2000/svg" xmlns:xlink="http://www.w3.org/1999/xlink" x="0px" y="0px"
	 viewBox="3.4 358.7 611.9 80.2" enable-background="new 3.4 358.7 611.9 80.2" xml:space="preserve">
<g>
	<g>
		<g>
			<g>
				<g>
					<path fill="#FFFFFF" d="M166.6,421.8h-2.3l-9-31.4c-0.8-2.5-1.3-4.7-1.7-6.3c-0.3,1.7-0.7,3.5-1.3,5.6
						c-0.6,2.1-3.5,12.9-9,32.2h-2.4l-11.2-40.8h3l7.1,26.3c0.3,1.1,0.6,2.1,0.8,2.9c0.2,0.9,0.5,1.8,0.7,2.5
						c0.2,0.8,0.4,1.6,0.5,2.2c0.2,0.8,0.3,1.5,0.4,2.2c0.5-2.5,1.4-6.3,2.8-11.5l6.9-24.7h3.1l8.2,28.4c1,3.3,1.7,6,2.1,7.9
						c0.2-1.4,0.6-2.7,1-4.3c0.4-1.5,3.2-12.2,8.6-32h2.8L166.6,421.8z"/>
					<path fill="#FFFFFF" d="M206.1,406.6c0,5-1.2,8.8-3.6,11.6c-2.4,2.7-5.7,4.2-10,4.2c-2.6,0-5-0.7-7-2c-2.1-1.3-3.6-3.1-4.7-5.6
						c-1.1-2.4-1.7-5.2-1.7-8.3c0-5,1.2-8.8,3.6-11.5c2.4-2.7,5.7-4.1,9.9-4.1c4.2,0,7.4,1.4,9.8,4.2
						C204.9,397.8,206.1,401.7,206.1,406.6z M182.1,406.6c0,4.2,0.9,7.4,2.7,9.8c1.9,2.3,4.4,3.5,7.8,3.5c3.4,0,6-1.2,7.8-3.5
						s2.7-5.6,2.7-9.8s-0.9-7.4-2.7-9.8s-4.5-3.4-7.8-3.4s-6,1.2-7.7,3.4C183,399.1,182.1,402.4,182.1,406.6z"/>
					<path fill="#FFFFFF" d="M249.5,421.8v-19.8c0-2.9-0.6-5.1-1.8-6.4c-1.2-1.4-2.9-2.1-5.3-2.1c-3.1,0-5.4,0.9-6.9,2.5
						c-1.5,1.8-2.2,4.4-2.2,8.1v17.8h-2.8V401c0-5.1-2.3-7.7-7-7.7c-3.2,0-5.5,1-6.9,2.7c-1.5,1.9-2.1,4.8-2.1,8.9v16.7h-2.7v-30.2
						h2.2l0.6,4.2h0.2c0.9-1.5,2.1-2.6,3.6-3.5c1.6-0.8,3.2-1.3,5.1-1.3c4.8,0,7.8,1.8,9.2,5.4h0.1c1-1.8,2.3-3,4-4
						c1.7-1,3.5-1.4,5.7-1.4c3.3,0,5.8,0.9,7.4,2.6c1.7,1.8,2.4,4.6,2.4,8.4v19.8H249.5L249.5,421.8z"/>
					<path fill="#FFFFFF" d="M272,422.3c-4.4,0-7.8-1.4-10.4-4.1c-2.4-2.7-3.7-6.5-3.7-11.4c0-4.9,1.2-8.7,3.6-11.6
						c2.3-2.9,5.6-4.4,9.7-4.4c3.6,0,6.3,1.3,8.5,3.7c2.1,2.5,3.1,5.9,3.1,10.2v2.2H261c0,4.2,1,7.3,2.9,9.6c2,2.1,4.6,3.3,8.2,3.3
						c1.8,0,3.2-0.1,4.6-0.4c1.3-0.2,2.9-0.8,5-1.6v2.5c-1.8,0.8-3.3,1.3-4.8,1.6C275.4,422.2,273.8,422.3,272,422.3z M271.2,393.3
						c-2.9,0-5.3,1-7,2.9c-1.8,2-2.8,4.7-3.1,8.3h18.8c0-3.5-0.8-6.3-2.2-8.2C276,394.3,273.9,393.3,271.2,393.3z"/>
					<path fill="#FFFFFF" d="M310,421.8v-19.6c0-3-0.7-5.3-2-6.6c-1.3-1.4-3.3-2.1-6-2.1c-3.6,0-6.3,0.9-8,2.7
						c-1.7,1.9-2.5,4.8-2.5,8.9v16.7h-2.7v-30.3h2.3l0.5,4.2h0.2c2-3.1,5.5-4.8,10.5-4.8c6.8,0,10.4,3.7,10.4,11v19.8
						C312.7,421.8,310,421.8,310,421.8z"/>
					<path fill="#FFFFFF" d="M344.2,421.8h-2.8v-38.1h-13.3V381h29.4v2.6h-13.3V421.8L344.2,421.8z"/>
					<path fill="#FFFFFF" d="M372.8,422.3c-4.4,0-7.8-1.4-10.4-4.1c-2.4-2.7-3.7-6.5-3.7-11.4c0-4.9,1.2-8.7,3.6-11.6
						c2.3-2.9,5.6-4.4,9.7-4.4c3.6,0,6.3,1.3,8.5,3.7c2.1,2.5,3.1,5.9,3.1,10.2v2.2h-21.9c0,4.2,1,7.3,2.9,9.6
						c2,2.1,4.6,3.3,8.2,3.3c1.8,0,3.2-0.1,4.6-0.4c1.3-0.2,2.9-0.8,5-1.6v2.5c-1.8,0.8-3.3,1.3-4.8,1.6
						C376.1,422.2,374.5,422.3,372.8,422.3z M372,393.3c-2.9,0-5.3,1-7,2.9c-1.8,2-2.8,4.7-3.1,8.3h18.8c0-3.5-0.8-6.3-2.2-8.2
						C376.8,394.3,374.6,393.3,372,393.3z"/>
					<path fill="#FFFFFF" d="M401.7,422.3c-4.3,0-7.7-1.4-10.2-4.1c-2.4-2.7-3.7-6.5-3.7-11.4c0-5,1.3-9,3.8-11.7
						c2.5-2.8,6.1-4.2,10.5-4.2c2.6,0,5.2,0.5,7.5,1.4l-0.8,2.4c-2.6-0.9-4.9-1.3-6.8-1.3c-3.7,0-6.5,1.2-8.5,3.4
						c-2,2.3-2.8,5.6-2.8,10c0,4.1,1,7.3,2.8,9.6c2,2.3,4.6,3.5,8,3.5c2.7,0,5.3-0.5,7.7-1.5v2.5
						C407.4,421.8,404.9,422.3,401.7,422.3z"/>
					<path fill="#FFFFFF" d="M436.8,421.8v-19.6c0-3-0.7-5.3-2-6.6c-1.3-1.4-3.3-2.1-6-2.1c-3.6,0-6.3,0.9-8,2.7
						c-1.8,1.9-2.5,4.8-2.5,8.9v16.7h-2.7v-43.4h2.7v13.8l-0.1,3.9h0.2c1.2-1.9,2.5-3.1,4.3-4c1.8-0.8,3.9-1.3,6.4-1.3
						c6.8,0,10.4,3.7,10.4,11v19.8C439.5,421.8,436.8,421.8,436.8,421.8z"/>
					<path fill="#FFFFFF" d="M483.8,421.8v-19.8c0-2.9-0.6-5.1-1.8-6.4c-1.2-1.4-2.9-2.1-5.3-2.1c-3.1,0-5.4,0.9-6.9,2.5
						c-1.5,1.8-2.2,4.4-2.2,8.1v17.8h-2.8V401c0-5.1-2.3-7.7-7-7.7c-3.2,0-5.5,1-6.9,2.7c-1.5,1.9-2.1,4.8-2.1,8.9v16.7h-2.7v-30.2
						h2.2l0.6,4.2h0.2c0.9-1.5,2.1-2.6,3.6-3.5c1.6-0.8,3.2-1.3,5.1-1.3c4.8,0,7.8,1.8,9.2,5.4h0.1c1-1.8,2.3-3,4-4
						c1.7-1,3.5-1.4,5.7-1.4c3.3,0,5.8,0.9,7.4,2.6c1.7,1.8,2.4,4.6,2.4,8.4v19.8H483.8L483.8,421.8z"/>
					<path fill="#FFFFFF" d="M512.6,421.8l-0.7-4.8h-0.2c-1.6,2-3.1,3.3-4.7,4.1c-1.6,0.8-3.5,1.2-5.7,1.2c-2.9,0-5.3-0.8-6.9-2.2
						c-1.7-1.6-2.4-3.6-2.4-6.3c0-2.9,1.3-5.3,3.7-6.9s6.1-2.5,10.7-2.6l5.8-0.2v-2.1c0-2.9-0.6-5.1-1.8-6.5c-1.2-1.5-3-2.2-5.7-2.2
						c-2.8,0-5.8,0.8-8.7,2.3l-1.1-2.4c3.3-1.6,6.6-2.3,9.9-2.3c3.3,0,5.9,0.9,7.4,2.6c1.7,1.8,2.4,4.4,2.4,8.1v20.2h-2.1V421.8z
						 M501.3,419.8c3.2,0,5.8-0.9,7.6-2.7c1.9-1.9,2.8-4.4,2.8-7.7v-3l-5.3,0.2c-4.3,0.2-7.3,0.9-9.1,2c-1.9,1.2-2.7,2.8-2.7,5.3
						c0,1.9,0.6,3.4,1.8,4.4C497.6,419.3,499.3,419.8,501.3,419.8z"/>
					<path fill="#FFFFFF" d="M524.8,408.5l15.5-17h3.3l-11.9,13l13,17.4h-3.3l-11.5-15.3l-5,4.5v10.8h-2.7v-43.5h2.7v21.8
						L524.8,408.5L524.8,408.5L524.8,408.5z"/>
					<path fill="#FFFFFF" d="M559.7,422.3c-4.4,0-7.8-1.4-10.4-4.1c-2.4-2.7-3.7-6.5-3.7-11.4c0-4.9,1.2-8.7,3.6-11.6
						c2.3-2.9,5.6-4.4,9.7-4.4c3.6,0,6.3,1.3,8.5,3.7c2.1,2.5,3.1,5.9,3.1,10.2v2.2h-21.9c0,4.2,1,7.3,2.9,9.6
						c2,2.2,4.6,3.3,8.2,3.3c1.8,0,3.2-0.1,4.6-0.4c1.3-0.2,2.9-0.8,5-1.6v2.5c-1.8,0.8-3.3,1.3-4.8,1.6
						C563,422.2,561.5,422.3,559.7,422.3z M558.9,393.3c-2.9,0-5.3,1-7,2.9s-2.8,4.7-3.1,8.3h18.8c0-3.5-0.8-6.3-2.2-8.2
						C563.7,394.3,561.6,393.3,558.9,393.3z"/>
					<path fill="#FFFFFF" d="M588.5,390.9c1.3,0,2.6,0.1,4.1,0.4l-0.5,2.6c-1.3-0.3-2.5-0.5-3.9-0.5c-2.6,0-4.7,1.1-6.3,3.3
						c-1.7,2.1-2.4,5-2.4,8.3v16.7h-2.7v-30.3h2.3l0.3,5.5h0.2c1.3-2.2,2.5-3.8,4-4.7C584.8,391.3,586.5,390.9,588.5,390.9z"/>
					<path fill="#FFFFFF" d="M615.3,413.9c0,2.7-1.1,4.8-3.1,6.3c-2.1,1.5-5,2.1-8.8,2.1c-4.1,0-7.3-0.6-9.7-1.9v-3
						c3,1.6,6.3,2.2,9.7,2.2c3,0,5.3-0.5,6.8-1.5c1.6-1,2.3-2.3,2.3-4c0-1.6-0.6-2.8-1.9-3.8c-1.3-1.1-3.2-2.1-6.1-3
						c-3-1.1-5.2-2.1-6.3-2.8c-1.3-0.8-2.1-1.7-2.7-2.6c-0.6-1-1-2.2-1-3.6c0-2.2,1-4.1,2.8-5.4c2-1.4,4.6-2,8-2
						c3.3,0,6.3,0.6,9.3,1.9l-1.1,2.5c-2.9-1.3-5.8-1.9-8.3-1.9c-2.4,0-4.4,0.4-5.9,1.3c-1.5,0.8-2.1,2-2.1,3.4
						c0,1.6,0.6,2.8,1.7,3.8c1.2,1,3.3,2.1,6.6,3.2c2.7,1,4.7,1.9,6,2.6c1.3,0.8,2.1,1.7,2.8,2.7C615,411.4,615.3,412.6,615.3,413.9
						z"/>
				</g>
			</g>
		</g>
	</g>
	<g>
		<g>
			<g>
				<rect x="21.3" y="375.1" fill="#557EBF" width="14.6" height="47.4"/>
				<rect x="64.9" y="375.1" fill="#27BAA2" width="14.7" height="47.4"/>
				<polygon fill="#62C3A6" points="65,422.4 79.7,422.4 57.8,382.2 43.2,382.2 				"/>
			</g>
			<polygon fill="#59C2EF" points="35.9,422.4 21.3,422.4 43.2,382.2 57.7,382.2 			"/>
		</g>
		<g>
			<path fill="#557EBF" d="M12.7,429.7V368h16v-9.4H7c-2.1,0-3.6,1.7-3.6,3.7v72.4c0,2.1,1.7,4.1,3.7,4.1h21.7v-9.2H12.7L12.7,429.7
				z"/>
			<path fill="#27BAA2" d="M88.3,429.7V368h-16v-9.4h21.7c2.1,0,3.7,1.7,3.7,3.7v72.4c0,2.1-1.7,4.1-3.7,4.1H72.3v-9.2H88.3
				L88.3,429.7z"/>
		</g>
	</g>
</g>
</svg>
