<?xml version="1.0" encoding="utf-8"?>
<!-- Generator: Adobe Illustrator 17.1.0, SVG Export Plug-In . SVG Version: 6.00 Build 0)  -->
<!DOCTYPE svg PUBLIC "-//W3C//DTD SVG 1.1//EN" "http://www.w3.org/Graphics/SVG/1.1/DTD/svg11.dtd">
<svg version="1.1" id="Layer_1" xmlns="http://www.w3.org/2000/svg" xmlns:xlink="http://www.w3.org/1999/xlink" x="0px" y="0px"
	 viewBox="87 314.3 93.1 79.2" enable-background="new 87 314.3 93.1 79.2" xml:space="preserve">
<g>
	<g>
		<g>
			<g>
				<rect x="104.7" y="330.5" fill="#557EBF" width="14.4" height="46.8"/>
				<rect x="147.8" y="330.5" fill="#27BAA2" width="14.5" height="46.8"/>
				<polygon fill="#62C3A6" points="147.9,377.3 162.3,377.3 140.8,337.6 126.3,337.6 				"/>
			</g>
			<polygon fill="#59C2EF" points="119.1,377.3 104.7,377.3 126.2,337.6 140.7,337.6 			"/>
		</g>
		<g>
			<path fill="#557EBF" d="M96.3,384.3v-60.7h15.8v-9.3H90.7c-2,0-3.7,1.6-3.7,3.7v71.4c0,1.9,1.6,4,3.7,4h21.4v-9.1H96.3
				L96.3,384.3z"/>
			<path fill="#27BAA2" d="M170.8,384.3v-60.7h-15.7v-9.3h21.4c2,0,3.7,1.6,3.7,3.7v71.4c0,2-1.6,4-3.7,4h-21.4v-9.1L170.8,384.3
				L170.8,384.3z"/>
		</g>
	</g>
</g>
</svg>
