<?xml version="1.0" encoding="utf-8"?>
<!-- Generator: Adobe Illustrator 17.1.0, SVG Export Plug-In . SVG Version: 6.00 Build 0)  -->
<!DOCTYPE svg PUBLIC "-//W3C//DTD SVG 1.1//EN" "http://www.w3.org/Graphics/SVG/1.1/DTD/svg11.dtd">
<svg version="1.1" id="Layer_1" xmlns="http://www.w3.org/2000/svg" xmlns:xlink="http://www.w3.org/1999/xlink" x="0px" y="0px"
	 viewBox="3.4 2.7 626.6 82" enable-background="new 3.4 2.7 626.6 82" xml:space="preserve">
<g>
	<g>
		<g>
			<g>
				<g>
					<path fill="#666666" d="M170.5,67.3h-2.4l-9.2-32.2c-0.8-2.6-1.3-4.8-1.7-6.5c-0.3,1.7-0.7,3.6-1.3,5.7
						c-0.6,2.2-3.6,13.2-9.2,33h-2.5l-11.5-41.8h3.1l7.3,26.9c0.3,1.1,0.6,2.1,0.8,3c0.2,0.9,0.5,1.8,0.7,2.6
						c0.2,0.8,0.4,1.6,0.5,2.3c0.2,0.8,0.3,1.5,0.4,2.3c0.5-2.6,1.4-6.5,2.9-11.8l7.1-25.3h3.2l8.4,29.1c1,3.4,1.7,6.1,2.1,8.1
						c0.2-1.4,0.6-2.8,1-4.4c0.4-1.5,3.3-12.5,8.8-32.8h2.9L170.5,67.3z"/>
					<path fill="#666666" d="M210.9,51.8c0,5.1-1.2,9-3.7,11.9c-2.5,2.8-5.8,4.3-10.2,4.3c-2.7,0-5.1-0.7-7.2-2
						c-2.1-1.3-3.7-3.2-4.8-5.7c-1.1-2.5-1.7-5.3-1.7-8.5c0-5.1,1.2-9,3.7-11.8c2.5-2.8,5.8-4.2,10.1-4.2c4.3,0,7.6,1.4,10,4.3
						C209.7,42.8,210.9,46.8,210.9,51.8z M186.4,51.8c0,4.3,0.9,7.6,2.8,10c1.9,2.4,4.5,3.6,8,3.6s6.1-1.2,8-3.6s2.8-5.7,2.8-10
						c0-4.3-0.9-7.6-2.8-10c-1.9-2.4-4.6-3.5-8-3.5c-3.4,0-6.1,1.2-7.9,3.5C187.3,44.1,186.4,47.5,186.4,51.8z"/>
					<path fill="#666666" d="M255.4,67.3V47c0-3-0.6-5.2-1.8-6.6c-1.2-1.4-3-2.1-5.4-2.1c-3.2,0-5.5,0.9-7.1,2.6
						c-1.5,1.8-2.3,4.5-2.3,8.3v18.2h-2.9V46.1c0-5.2-2.4-7.9-7.2-7.9c-3.3,0-5.6,1-7.1,2.8c-1.5,1.9-2.2,4.9-2.2,9.1v17.1h-2.8
						V36.3h2.3l0.6,4.3h0.2c0.9-1.5,2.1-2.7,3.7-3.6c1.6-0.8,3.3-1.3,5.2-1.3c4.9,0,8,1.8,9.4,5.5h0.1c1-1.8,2.4-3.1,4.1-4.1
						c1.7-1,3.6-1.4,5.8-1.4c3.4,0,5.9,0.9,7.6,2.7c1.7,1.8,2.5,4.7,2.5,8.6v20.3L255.4,67.3L255.4,67.3z"/>
					<path fill="#666666" d="M278.4,67.9c-4.5,0-8-1.4-10.6-4.2c-2.5-2.8-3.8-6.7-3.8-11.7c0-5,1.2-8.9,3.7-11.9
						c2.4-3,5.7-4.5,9.9-4.5c3.7,0,6.5,1.3,8.7,3.8c2.1,2.6,3.2,6,3.2,10.4v2.3h-22.4c0,4.3,1,7.5,3,9.8c2,2.2,4.7,3.4,8.4,3.4
						c1.8,0,3.3-0.1,4.7-0.4c1.3-0.2,3-0.8,5.1-1.6v2.6c-1.8,0.8-3.4,1.3-4.9,1.6C281.9,67.8,280.2,67.9,278.4,67.9z M277.6,38.2
						c-3,0-5.4,1-7.2,3c-1.8,2-2.9,4.8-3.2,8.5h19.2c0-3.6-0.8-6.4-2.3-8.4C282.5,39.2,280.4,38.2,277.6,38.2z"/>
					<path fill="#666666" d="M317.3,67.3V47.2c0-3.1-0.7-5.4-2-6.8c-1.3-1.4-3.4-2.1-6.1-2.1c-3.7,0-6.4,0.9-8.2,2.8
						c-1.7,1.9-2.6,4.9-2.6,9.1v17.1h-2.8V36.3h2.4l0.5,4.3h0.2c2-3.2,5.6-4.9,10.8-4.9c7,0,10.6,3.8,10.6,11.3v20.3
						C320.1,67.3,317.3,67.3,317.3,67.3z"/>
					<path fill="#666666" d="M352.3,67.3h-2.9v-39h-13.6v-2.7h30.1v2.7h-13.6L352.3,67.3L352.3,67.3z"/>
					<path fill="#666666" d="M381.6,67.9c-4.5,0-8-1.4-10.6-4.2c-2.5-2.8-3.8-6.7-3.8-11.7c0-5,1.2-8.9,3.7-11.9
						c2.4-3,5.7-4.5,9.9-4.5c3.7,0,6.5,1.3,8.7,3.8c2.1,2.6,3.2,6,3.2,10.4v2.3h-22.4c0,4.3,1,7.5,3,9.8c2,2.2,4.7,3.4,8.4,3.4
						c1.8,0,3.3-0.1,4.7-0.4c1.3-0.2,3-0.8,5.1-1.6v2.6c-1.8,0.8-3.4,1.3-4.9,1.6C385,67.8,383.4,67.9,381.6,67.9z M380.8,38.2
						c-3,0-5.4,1-7.2,3c-1.8,2-2.9,4.8-3.2,8.5h19.2c0-3.6-0.8-6.4-2.3-8.4C385.7,39.2,383.5,38.2,380.8,38.2z"/>
					<path fill="#666666" d="M411.2,67.9c-4.4,0-7.9-1.4-10.4-4.2C398.3,60.9,397,57,397,52c0-5.1,1.3-9.2,3.9-12
						c2.6-2.9,6.2-4.3,10.7-4.3c2.7,0,5.3,0.5,7.7,1.4l-0.8,2.5c-2.7-0.9-5-1.3-7-1.3c-3.8,0-6.7,1.2-8.7,3.5
						c-2,2.4-2.9,5.7-2.9,10.2c0,4.2,1,7.5,2.9,9.8c2,2.4,4.7,3.6,8.2,3.6c2.8,0,5.4-0.5,7.9-1.5v2.6
						C417,67.4,414.5,67.9,411.2,67.9z"/>
					<path fill="#666666" d="M447.1,67.3V47.2c0-3.1-0.7-5.4-2-6.8c-1.3-1.4-3.4-2.1-6.1-2.1c-3.7,0-6.4,0.9-8.2,2.8
						s-2.6,4.9-2.6,9.1v17.1h-2.8V22.9h2.8V37l-0.1,4h0.2c1.2-1.9,2.6-3.2,4.4-4.1c1.8-0.8,4-1.3,6.6-1.3c7,0,10.6,3.8,10.6,11.3
						v20.3C449.9,67.3,447.1,67.3,447.1,67.3z"/>
					<path fill="#666666" d="M495.3,67.3V47c0-3-0.6-5.2-1.8-6.6c-1.2-1.4-3-2.1-5.4-2.1c-3.2,0-5.5,0.9-7.1,2.6
						c-1.5,1.8-2.3,4.5-2.3,8.3v18.2h-2.9V46.1c0-5.2-2.4-7.9-7.2-7.9c-3.3,0-5.6,1-7.1,2.8c-1.5,1.9-2.2,4.9-2.2,9.1v17.1h-2.8
						V36.3h2.3l0.6,4.3h0.2c0.9-1.5,2.1-2.7,3.7-3.6c1.6-0.8,3.3-1.3,5.2-1.3c4.9,0,8,1.8,9.4,5.5h0.1c1-1.8,2.4-3.1,4.1-4.1
						c1.7-1,3.6-1.4,5.8-1.4c3.4,0,5.9,0.9,7.6,2.7c1.7,1.8,2.5,4.7,2.5,8.6v20.3L495.3,67.3L495.3,67.3z"/>
					<path fill="#666666" d="M524.7,67.3l-0.7-4.9h-0.2c-1.6,2-3.2,3.4-4.8,4.2c-1.6,0.8-3.6,1.2-5.8,1.2c-3,0-5.4-0.8-7.1-2.3
						c-1.7-1.6-2.5-3.7-2.5-6.5c0-3,1.3-5.4,3.8-7.1c2.5-1.7,6.2-2.6,11-2.7l5.9-0.2v-2.1c0-3-0.6-5.2-1.8-6.7
						c-1.2-1.5-3.1-2.3-5.8-2.3c-2.9,0-5.9,0.8-8.9,2.4l-1.1-2.5c3.4-1.6,6.8-2.4,10.1-2.4c3.4,0,6,0.9,7.6,2.7
						c1.7,1.8,2.5,4.5,2.5,8.3v20.7H524.7z M513.2,65.3c3.3,0,5.9-0.9,7.8-2.8c1.9-1.9,2.9-4.5,2.9-7.9v-3.1l-5.4,0.2
						c-4.4,0.2-7.5,0.9-9.3,2c-1.9,1.2-2.8,2.9-2.8,5.4c0,1.9,0.6,3.5,1.8,4.5C509.4,64.8,511.1,65.3,513.2,65.3z"/>
					<path fill="#666666" d="M537.2,53.7l15.9-17.4h3.4l-12.2,13.3l13.3,17.8h-3.4l-11.8-15.7l-5.1,4.6v11.1h-2.8V22.9h2.8v22.3
						l-0.2,8.5L537.2,53.7L537.2,53.7z"/>
					<path fill="#666666" d="M573,67.9c-4.5,0-8-1.4-10.6-4.2c-2.5-2.8-3.8-6.7-3.8-11.7c0-5,1.2-8.9,3.7-11.9
						c2.4-3,5.7-4.5,9.9-4.5c3.7,0,6.5,1.3,8.7,3.8c2.1,2.6,3.2,6,3.2,10.4v2.3h-22.4c0,4.3,1,7.5,3,9.8s4.7,3.4,8.4,3.4
						c1.8,0,3.3-0.1,4.7-0.4c1.3-0.2,3-0.8,5.1-1.6v2.6c-1.8,0.8-3.4,1.3-4.9,1.6C576.4,67.8,574.8,67.9,573,67.9z M572.2,38.2
						c-3,0-5.4,1-7.2,3c-1.8,2-2.9,4.8-3.2,8.5H581c0-3.6-0.8-6.4-2.3-8.4C577.1,39.2,574.9,38.2,572.2,38.2z"/>
					<path fill="#666666" d="M602.5,35.7c1.3,0,2.7,0.1,4.2,0.4l-0.5,2.7c-1.3-0.3-2.6-0.5-4-0.5c-2.7,0-4.8,1.1-6.5,3.4
						c-1.7,2.2-2.5,5.1-2.5,8.5v17.1h-2.8V36.3h2.4l0.3,5.6h0.2c1.3-2.3,2.6-3.9,4.1-4.8C598.7,36.1,600.4,35.7,602.5,35.7z"/>
					<path fill="#666666" d="M629.9,59.3c0,2.8-1.1,4.9-3.2,6.4c-2.1,1.5-5.1,2.2-9,2.2c-4.2,0-7.5-0.6-9.9-1.9v-3.1
						c3.1,1.6,6.4,2.3,9.9,2.3c3.1,0,5.4-0.5,7-1.5c1.6-1,2.4-2.4,2.4-4.1c0-1.6-0.6-2.9-1.9-3.9c-1.3-1.1-3.3-2.1-6.2-3.1
						c-3.1-1.1-5.3-2.1-6.5-2.9c-1.3-0.8-2.2-1.7-2.8-2.7c-0.6-1-1-2.3-1-3.7c0-2.3,1-4.2,2.9-5.5c2-1.4,4.7-2,8.2-2
						c3.4,0,6.5,0.6,9.5,1.9l-1.1,2.6c-3-1.3-5.9-1.9-8.5-1.9c-2.5,0-4.5,0.4-6,1.3c-1.5,0.8-2.2,2-2.2,3.5c0,1.6,0.6,2.9,1.7,3.9
						c1.2,1,3.4,2.1,6.8,3.3c2.8,1,4.8,1.9,6.1,2.7c1.3,0.8,2.2,1.7,2.9,2.8C629.6,56.7,629.9,57.9,629.9,59.3z"/>
				</g>
			</g>
		</g>
	</g>
	<g>
		<g>
			<g>
				<rect x="21.7" y="19.5" fill="#557EBF" width="14.9" height="48.5"/>
				<rect x="66.4" y="19.5" fill="#27BAA2" width="15" height="48.5"/>
				<polygon fill="#62C3A6" points="66.5,68 81.5,68 59.1,26.8 44.2,26.8 				"/>
			</g>
			<polygon fill="#59C2EF" points="36.7,68 21.7,68 44.1,26.8 59,26.8 			"/>
		</g>
		<g>
			<path fill="#557EBF" d="M12.9,75.4V12.3h16.4V2.7H7.1C5,2.7,3.4,4.4,3.4,6.5v74.1c0,2.1,1.7,4.2,3.8,4.2h22.2v-9.4L12.9,75.4
				L12.9,75.4z"/>
			<path fill="#27BAA2" d="M90.3,75.4V12.3H73.9V2.7h22.2c2.1,0,3.8,1.7,3.8,3.8v74.1c0,2.1-1.7,4.2-3.8,4.2H73.9v-9.4L90.3,75.4
				L90.3,75.4z"/>
		</g>
	</g>
</g>
</svg>
