<?xml version="1.0" encoding="utf-8"?>
<!-- Generator: Adobe Illustrator 17.1.0, SVG Export Plug-In . SVG Version: 6.00 Build 0)  -->
<!DOCTYPE svg PUBLIC "-//W3C//DTD SVG 1.1//EN" "http://www.w3.org/Graphics/SVG/1.1/DTD/svg11.dtd">
<svg version="1.1" id="Layer_1" xmlns="http://www.w3.org/2000/svg" xmlns:xlink="http://www.w3.org/1999/xlink" x="0px" y="0px"
	 viewBox="0.5 0.7 19 32.6" enable-background="new 0.5 0.7 19 32.6" xml:space="preserve">
<g>
	<path fill="#57C1EE" d="M10,33c0.2-4.5,2.7-11.7,6.3-16.3c1.9-2.5,2.8-4.9,2.8-6.4C19.1,5.2,15.1,1,10,1l0,0
		c-5.1,0-9.1,4.1-9.1,9.3c0,1.5,0.9,3.9,2.8,6.4C7.3,21.2,9.7,28.5,10,33L10,33z"/>
	<path fill="#547DBE" d="M10.4,33.3H9.6l0-0.3C9.4,28.7,7,21.5,3.4,16.9c-2.1-2.8-2.9-5.2-2.9-6.6C0.5,5,4.8,0.7,10,0.7
		c5.2,0,9.5,4.3,9.5,9.6c0,1.4-0.8,3.9-2.9,6.6c-3.6,4.6-6,11.8-6.2,16.1L10.4,33.3L10.4,33.3z M10,1.4c-4.9,0-8.8,4-8.8,8.9
		c0,1.2,0.7,3.6,2.8,6.2c3.1,3.9,5.2,9.6,6,14c0.8-4.4,3-10.1,6-14c2-2.6,2.8-5,2.8-6.2C18.8,5.4,14.9,1.4,10,1.4L10,1.4z"/>
	<circle fill="#547DBE" cx="10" cy="9.9" r="3.9"/>
</g>
</svg>
